#tb 0: 1/25
0,          0,          0,        1,   152064, 0xbe2f89ef
0,          1,          1,        1,   152064, 0x4c806551
0,          2,          2,        1,   152064, 0x8165f64a
0,          3,          3,        1,   152064, 0xadf280b0
0,          4,          4,        1,   152064, 0x6677b652
